<svg xmlns="http://www.w3.org/2000/svg" width="139" height="136" fill="none" viewBox="0 0 139 136"><rect width="138.555" height="135.724" fill="url(#a)" rx="18.737"/><path fill="#6d53f4" d="M80.674 67.305c.06 1.437-1.04 3.028-2.356 3.625-2.738 1.254-5.98-1.346-9.024-1.346s-6.317 2.707-9.009 1.346c-1.53-.75-2.585-2.738-2.386-4.39.275-2.28 3.013-3.503 4.634-5.17 2.157-2.157 3.687-6.21 6.761-6.21 3.06 0 4.68 3.992 6.745 6.21 1.698 1.866 4.528 3.441 4.635 5.935M67.964 49.044c-.55-2.527-2.462-4.358-4.267-4.116-1.805.27-2.83 2.512-2.264 5.024.566 2.526 2.493 4.357 4.283 4.102 1.805-.256 2.799-2.498 2.248-5.01M76.927 49.952c.536-2.512-.474-4.755-2.294-5.024-1.79-.242-3.701 1.59-4.252 4.116-.566 2.512.428 4.754 2.248 5.01 1.805.255 3.717-1.576 4.298-4.102M60.867 54.224c-1.239-2.2-3.61-3.463-5.353-2.767-1.683.68-2.11 3.051-.902 5.28s3.563 3.477 5.292 2.781 2.126-3.051.963-5.294M83.948 56.737c1.208-2.229.78-4.6-.902-5.28-1.744-.696-4.115.567-5.354 2.767-1.162 2.243-.765 4.599.964 5.294 1.728.696 4.084-.553 5.292-2.782M29.564 103.15q0 1.06-.5 2t-1.6 1.54q-1.101.58-2.82.58h-2.52v5.64h-2.28v-13.9h4.8q1.599 0 2.7.56 1.12.54 1.66 1.48.56.94.56 2.1m-4.92 2.26q1.3 0 1.94-.58.64-.6.64-1.68 0-2.28-2.58-2.28h-2.52v4.54zm17.194 1.72q0 .62-.08 1.12h-8.42q.1 1.32.98 2.12t2.16.8q1.84 0 2.6-1.54h2.46a5 5 0 0 1-1.82 2.5q-1.299.96-3.24.96-1.58 0-2.84-.7a5.23 5.23 0 0 1-1.96-2q-.7-1.3-.7-3t.68-2.98a4.9 4.9 0 0 1 1.94-2q1.26-.7 2.88-.7 1.56 0 2.78.68a4.8 4.8 0 0 1 1.9 1.92q.68 1.22.68 2.82m-2.38-.72q-.02-1.26-.9-2.02t-2.18-.76q-1.18 0-2.02.76-.84.74-1 2.02zm7.284-2.66v6.1q0 .62.28.9.3.26 1 .26h1.4v1.9h-1.8q-1.54 0-2.36-.72t-.82-2.34v-6.1h-1.3v-1.86h1.3v-2.74h2.3v2.74h2.68v1.86zm8.781 9.34q-1.299 0-2.34-.46-1.02-.48-1.62-1.28a3.24 3.24 0 0 1-.64-1.82h2.36q.06.7.66 1.18.62.46 1.54.46.96 0 1.48-.36.54-.38.54-.96 0-.62-.6-.92-.579-.3-1.86-.66-1.24-.34-2.02-.66a3.6 3.6 0 0 1-1.36-.98q-.56-.66-.56-1.74 0-.88.52-1.6.52-.74 1.48-1.16.98-.42 2.24-.42 1.88 0 3.02.96 1.16.94 1.24 2.58h-2.28q-.06-.74-.6-1.18t-1.46-.44q-.9 0-1.38.34t-.48.9q0 .44.32.74.321.3.78.48.46.16 1.36.42 1.2.32 1.96.66.78.32 1.34.96t.58 1.7a2.85 2.85 0 0 1-.52 1.68q-.52.74-1.48 1.16-.939.42-2.22.42m16.46-.04q-1.401 0-2.52-.48-1.12-.5-1.76-1.4t-.64-2.1h2.44q.08.9.7 1.48.64.58 1.78.58 1.18 0 1.84-.56.66-.58.66-1.48 0-.7-.42-1.14a2.64 2.64 0 0 0-1.02-.68q-.6-.24-1.68-.52-1.36-.36-2.22-.72a3.75 3.75 0 0 1-1.44-1.16q-.6-.78-.6-2.08 0-1.2.6-2.1t1.68-1.38 2.5-.48q2.019 0 3.3 1.02 1.299 1 1.44 2.76h-2.52q-.06-.76-.72-1.3t-1.74-.54q-.98 0-1.6.5t-.62 1.44q0 .64.38 1.06.4.4 1 .64t1.64.52q1.38.38 2.24.76.88.38 1.48 1.18.62.78.62 2.1 0 1.06-.58 2-.56.94-1.66 1.52-1.08.56-2.56.56m13.19-11.34q1.26 0 2.24.54.999.54 1.56 1.6.58 1.06.58 2.56v6.5h-2.26v-6.16q0-1.48-.74-2.26-.74-.8-2.02-.8t-2.04.8q-.74.78-.74 2.26v6.16h-2.28v-14.8h2.28v5.06a3.8 3.8 0 0 1 1.46-1.08q.9-.38 1.96-.38m12.068 11.38q-1.56 0-2.82-.7a5.2 5.2 0 0 1-1.98-2q-.72-1.3-.72-3 0-1.68.74-2.98a5.1 5.1 0 0 1 2.02-2q1.28-.7 2.86-.7t2.86.7a5.1 5.1 0 0 1 2.02 2q.74 1.3.74 2.98t-.76 2.98a5.3 5.3 0 0 1-2.08 2.02q-1.3.7-2.88.7m0-1.98q.88 0 1.64-.42.78-.42 1.26-1.26t.48-2.04-.46-2.02q-.46-.84-1.22-1.26a3.34 3.34 0 0 0-1.64-.42q-.88 0-1.64.42-.74.42-1.18 1.26-.44.82-.44 2.02 0 1.78.9 2.76.92.96 2.3.96m22.774-9.22-3.42 11.02h-2.4l-2.22-8.14-2.22 8.14h-2.4l-3.44-11.02h2.32l2.3 8.86 2.34-8.86h2.38l2.24 8.82 2.28-8.82z"/><defs><linearGradient id="a" x1="16.16" x2="54.506" y1="10.273" y2="140.488" gradientUnits="userSpaceOnUse"><stop stop-color="#cab6fd"/><stop offset="1" stop-color="#efe6fc"/></linearGradient></defs></svg>