<svg xmlns="http://www.w3.org/2000/svg" width="139" height="136" fill="none" viewBox="0 0 139 136"><rect width="138.555" height="135.724" fill="url(#a)" rx="18.737"/><path fill="#6d53f4" d="M39.186 96.292v4.08h4.8v1.86h-4.8v4.26h5.4v1.86h-7.68v-13.92h7.68v1.86zm12.468 10.02 3.12-8.98h2.42l-4.2 11.02h-2.72l-4.18-11.02h2.44zm17.364-3.74q0 .62-.08 1.12h-8.42q.1 1.32.98 2.12t2.16.8q1.84 0 2.6-1.54h2.46q-.5 1.52-1.82 2.5-1.3.96-3.24.96-1.58 0-2.84-.7a5.23 5.23 0 0 1-1.96-2q-.7-1.3-.7-3t.68-2.98a4.9 4.9 0 0 1 1.94-2q1.26-.7 2.88-.7 1.56 0 2.78.68a4.8 4.8 0 0 1 1.9 1.92q.68 1.22.68 2.82m-2.38-.72q-.02-1.26-.9-2.02t-2.18-.76q-1.18 0-2.02.76-.84.74-1 2.02zm10.184-4.7q1.3 0 2.32.54 1.04.54 1.62 1.6t.58 2.56v6.5h-2.26v-6.16q0-1.48-.74-2.26-.74-.8-2.02-.8t-2.04.8q-.74.78-.74 2.26v6.16h-2.28v-11.02h2.28v1.26a3.8 3.8 0 0 1 1.42-1.06 4.6 4.6 0 0 1 1.86-.38m10.088 2.04v6.1q0 .62.28.9.3.26 1 .26h1.4v1.9h-1.8q-1.54 0-2.36-.72t-.82-2.34v-6.1h-1.3v-1.86h1.3v-2.74h2.3v2.74h2.68v1.86zm8.781 9.34q-1.299 0-2.34-.46-1.02-.48-1.62-1.28a3.24 3.24 0 0 1-.64-1.82h2.36q.06.7.66 1.18.62.46 1.54.46.96 0 1.48-.36.54-.381.54-.96 0-.62-.6-.92-.579-.3-1.86-.66-1.24-.34-2.02-.66a3.6 3.6 0 0 1-1.36-.98q-.56-.66-.56-1.74 0-.88.52-1.6.52-.74 1.48-1.16.98-.42 2.24-.42 1.88 0 3.02.96 1.16.939 1.24 2.58h-2.28q-.06-.74-.6-1.18t-1.46-.44q-.9 0-1.38.34-.48.339-.48.9 0 .44.32.74.321.3.78.48.46.159 1.36.42 1.2.32 1.96.66.78.32 1.34.96t.58 1.7q0 .939-.52 1.68-.52.74-1.48 1.16-.939.42-2.22.42M82.51 39.318c.78.781.78 2.048 0 2.829l-5.842 5.845a6.683 6.683 0 0 1-2.377 9.244l-.348.188-1.036.517a10.19 10.19 0 0 1-3.936 9.762h-.002a12.515 12.515 0 0 1-16.371-1.165l-.001.001-1.07-1.072a12.54 12.54 0 0 1-1.163-16.388l.221-.284a10.17 10.17 0 0 1 9.531-3.656l.521-1.04a6.68 6.68 0 0 1 4.896-3.605 6.67 6.67 0 0 1 4.52.878l5.842-5.847a2 2 0 0 1 2.827 0zM69.274 48.78a5.77 5.77 0 0 0-4.082-1.692 5.77 5.77 0 0 0-5.332 3.567 5.78 5.78 0 0 0 1.25 6.296 5.77 5.77 0 0 0 9.854-4.086 5.78 5.78 0 0 0-1.69-4.085m-2.26 2.263a2.58 2.58 0 0 1-1.821 4.4 2.575 2.575 0 0 1-.987-4.958 2.58 2.58 0 0 1 1.972 0c.312.13.596.319.835.558"/><path fill="#6d53f4" stroke="#6d53f4" stroke-linejoin="round" stroke-width="3.998" d="m83.313 31.192-2.461 2.462 3.79 3.794 2.459-2.462a1.29 1.29 0 0 0 0-1.825l-1.967-1.969a1.29 1.29 0 0 0-1.821 0Z"/><defs><linearGradient id="a" x1="16.16" x2="54.506" y1="10.273" y2="140.488" gradientUnits="userSpaceOnUse"><stop stop-color="#fce1ee"/><stop offset="1" stop-color="#f7eff3"/></linearGradient></defs></svg>